<svg width="395" height="420" viewBox="0 0 395 420" fill="none" xmlns="http://www.w3.org/2000/svg">
<path d="M249.402 225.96C240.611 219.087 231.271 216.187 221.727 217.375C210.858 218.699 202.341 225.024 197.523 229.545C192.705 225.024 184.165 218.699 173.32 217.375C163.775 216.187 154.413 219.087 145.645 225.96C121.921 244.524 126.921 273.66 133.018 286.788C133.771 288.181 151.833 321.221 192.957 349.785C193.916 350.447 195.058 350.812 196.245 350.812H198.825C200.013 350.812 201.154 350.447 202.113 349.785C243.214 321.22 261.298 288.156 262.187 286.49C268.101 273.68 273.103 244.521 249.402 225.96ZM251.868 281.31C251.685 281.629 234.971 312.227 197.5 338.92C160.167 312.318 143.316 281.629 143.293 281.629C142.745 280.442 130.323 252.539 152.701 235.025C158.683 230.345 164.323 228.632 169.415 228.632C182.271 228.632 191.473 239.615 192.82 241.305C194.989 244.09 199.967 244.09 202.182 241.327C204.077 238.953 221.203 218.517 242.301 235.048C264.678 252.562 252.233 280.465 251.868 281.31Z" fill="#9DAF89"/>
<path d="M54.1285 87.727H61.8235V95.4219C61.8235 98.6187 64.4037 101.176 67.5776 101.176C70.7515 101.176 73.3317 98.5959 73.3317 95.4219V87.727H81.0267C84.2234 87.727 86.7808 85.1468 86.7808 81.9728C86.7808 78.7989 84.2006 76.2187 81.0267 76.2187H73.3317V68.5237C73.3317 65.327 70.7515 62.7696 67.5776 62.7696C64.4037 62.7696 61.8235 65.3498 61.8235 68.5237V76.2187H54.1285C50.9317 76.2187 48.3744 78.7989 48.3744 81.9728C48.3744 85.1468 50.9317 87.727 54.1285 87.727Z" fill="#9DAF89"/>
<path d="M133.656 25.0461H141.351V32.741C141.351 35.9378 143.931 38.4952 147.105 38.4952C150.279 38.4952 152.859 35.915 152.859 32.741V25.0461H160.554C163.751 25.0461 166.308 22.4658 166.308 19.2919C166.308 16.118 163.728 13.5378 160.554 13.5378H152.859V5.84283C152.859 2.64607 150.279 0.0886841 147.105 0.0886841C143.931 0.0886841 141.351 2.66892 141.351 5.84283V13.5378H133.656C130.459 13.5378 127.902 16.118 127.902 19.2919C127.902 22.443 130.482 25.0461 133.656 25.0461Z" fill="#9DAF89"/>
<path d="M277.647 38.4731H285.342V46.168C285.342 49.3648 287.922 51.9222 291.096 51.9222C294.293 51.9222 296.85 49.3419 296.85 46.168V38.4731H304.545C307.742 38.4731 310.299 35.8928 310.299 32.7189C310.299 29.545 307.719 26.9648 304.545 26.9648H296.85V19.2698C296.85 16.0731 294.27 13.5157 291.096 13.5157C287.899 13.5157 285.342 16.0959 285.342 19.2698V26.9648H277.647C274.45 26.9648 271.893 29.545 271.893 32.7189C271.893 35.8928 274.45 38.4731 277.647 38.4731Z" fill="#9DAF89"/>
<path d="M334.892 114.622H342.586V122.317C342.586 125.514 345.167 128.071 348.341 128.071C351.537 128.071 354.095 125.491 354.095 122.317V114.622H361.79C364.986 114.622 367.544 112.042 367.544 108.868C367.544 105.694 364.964 103.114 361.79 103.114H354.095V95.4187C354.095 92.222 351.514 89.6646 348.341 89.6646C345.144 89.6646 342.586 92.2448 342.586 95.4187V103.114H334.892C331.695 103.114 329.137 105.694 329.137 108.868C329.115 112.042 331.695 114.622 334.892 114.622Z" fill="#9DAF89"/>
<path d="M370.011 159.059H297.124C293.082 159.059 289.269 156.935 287.146 153.487L263.125 114.373C256.046 102.842 243.237 95.6724 229.719 95.6724H165.325C151.785 95.6724 138.998 102.842 131.92 114.373L107.899 153.487C105.752 156.981 102.03 159.059 97.9203 159.059H86.8233V145.975C86.8233 140.472 82.3479 136.02 76.8679 136.02H42.5259C37.0229 136.02 32.5705 140.495 32.5705 145.975V159.059H25.0579C11.7233 159.059 0.877014 169.928 0.877014 183.263V395.207C0.877014 408.542 11.7233 419.388 25.0579 419.388H370.057C383.391 419.388 394.238 408.542 394.238 395.207V183.239C394.192 169.927 383.346 159.059 370.011 159.059ZM44.0334 147.528H75.2704V159.059L44.0334 159.036V147.528ZM382.661 395.205C382.661 402.192 376.975 407.878 369.988 407.878H24.9889C18.0019 407.878 12.316 402.193 12.316 395.205L12.3388 183.237C12.3388 176.25 18.0245 170.542 25.0118 170.542H97.8987C106.027 170.542 113.425 166.409 117.696 159.49L141.717 120.376C146.74 112.247 155.782 107.155 165.327 107.155H229.721C239.288 107.155 248.308 112.202 253.331 120.376L277.352 159.49C281.554 166.318 289.135 170.542 297.149 170.542H370.036C377.023 170.542 382.709 176.227 382.709 183.237L382.661 395.205Z" fill="#9DAF89"/>
<path d="M197.5 175.479C139.982 175.479 93.1937 222.265 93.1937 279.785C93.1937 337.305 139.98 384.091 197.5 384.091C255.02 384.091 301.806 337.305 301.806 279.785C301.806 222.265 255.02 175.479 197.5 175.479ZM197.5 372.582C146.33 372.582 104.703 330.956 104.703 279.785C104.703 228.614 146.33 186.988 197.5 186.988C248.671 186.988 290.297 228.614 290.297 279.785C290.297 330.956 248.671 372.582 197.5 372.582Z" fill="#9DAF89"/>
<path d="M348.202 182.827C337.949 182.827 329.592 191.161 329.592 201.436C329.592 211.688 337.927 220.046 348.202 220.046C358.454 220.046 366.811 211.711 366.811 201.436C366.811 191.184 358.477 182.827 348.202 182.827ZM348.202 208.537C344.297 208.537 341.124 205.34 341.124 201.459C341.124 197.531 344.32 194.381 348.202 194.381C352.129 194.381 355.28 197.577 355.28 201.459C355.303 205.364 352.106 208.537 348.202 208.537Z" fill="#9DAF89"/>
</svg>
