<svg width="279" height="242" viewBox="0 0 279 242" fill="none" xmlns="http://www.w3.org/2000/svg">
<path d="M32.5634 0.763476C24.938 0.763476 18.6543 7.04714 18.6543 14.6726V24.4159C8.10847 26.5805 0.108887 35.966 0.108887 47.1266C0.108887 58.2873 8.10847 67.6727 18.6543 69.8374V80.0518C8.10847 82.2164 0.108887 91.6019 0.108887 102.763C0.108887 113.923 8.10847 123.309 18.6543 125.473V135.688C8.10847 137.852 0.108887 147.238 0.108887 158.398C0.108887 169.559 8.10847 178.945 18.6543 181.109V190.853C18.6543 198.478 24.938 204.762 32.5634 204.762H175.503L166.121 221.007C162.309 227.611 164.616 236.201 171.219 240.014C177.824 243.827 186.405 241.52 190.218 234.916L207.632 204.762H264.381C272.006 204.762 278.29 198.478 278.29 190.853V14.6712C278.29 7.04575 272.006 0.762085 264.381 0.762085L32.5634 0.763476ZM264.382 10.0362C267.03 10.0362 269.018 12.0238 269.018 14.6725V190.854C269.018 193.503 267.03 195.491 264.382 195.491H212.983L245.854 138.561C250.372 141.169 251.858 146.702 249.25 151.22L233.022 179.327C231.738 181.545 232.496 184.385 234.716 185.666C236.934 186.943 239.767 186.181 241.045 183.964L257.272 155.856C262.369 147.028 259.318 135.626 250.49 130.529L252.808 126.508C256.621 119.905 254.323 111.323 247.719 107.51C244.417 105.604 240.617 105.228 237.169 106.152C233.721 107.076 230.618 109.297 228.712 112.599L204.941 153.765H88.1973C85.6367 153.765 83.5609 155.84 83.5609 158.401C83.5609 160.962 85.6367 163.037 88.1973 163.037H199.586L180.85 195.491H32.5609C29.9121 195.491 27.9245 193.504 27.9245 190.855V145.28C33.3509 147.17 37.1972 152.293 37.1972 158.4C37.1972 160.961 39.273 163.037 41.8336 163.037C44.3942 163.037 46.47 160.961 46.47 158.4C46.47 147.24 38.4704 137.854 27.9245 135.69V89.6437C33.3509 91.5343 37.1972 96.6571 37.1972 102.765C37.1972 105.325 39.273 107.401 41.8336 107.401C44.3942 107.401 46.47 105.325 46.47 102.765C46.47 91.6039 38.4704 82.2185 27.9245 80.0538V34.0078C33.3509 35.8984 37.1972 41.0212 37.1972 47.1287C37.1972 49.6893 39.273 51.765 41.8336 51.765C44.3942 51.765 46.47 49.6893 46.47 47.1287C46.47 35.968 38.4704 26.5826 27.9245 24.4179V14.6746C27.9245 12.0259 29.9121 10.0383 32.5609 10.0383L264.382 10.0362ZM18.6543 34.0057V60.248C13.2279 58.3574 9.38161 53.2346 9.38161 47.1271C9.38161 41.0196 13.2279 35.896 18.6543 34.0057ZM167.987 42.4996C160.566 42.532 153.211 46.3556 148.002 52.8679C142.995 46.9491 136.675 42.7495 129.692 42.5176C123.821 42.3226 117.829 44.5035 113.528 49.2093C109.227 53.9152 106.746 60.8841 106.746 69.6923C106.746 81.8238 113.365 92.3368 121.596 99.792C129.828 107.247 139.643 112.035 148.473 112.035C157.303 112.035 167.118 107.247 175.35 99.792C183.581 92.3368 190.2 81.8238 190.2 69.6923C190.2 54.0339 181.516 44.2196 171.166 42.7165C170.109 42.5631 169.047 42.4949 167.987 42.4996ZM18.6543 89.6421V115.884C13.2279 113.994 9.38161 108.871 9.38161 102.763C9.38161 96.656 13.2279 91.5323 18.6543 89.6421ZM102.109 130.581C99.5483 130.581 97.4725 132.657 97.4725 135.218C97.4725 137.778 99.5483 139.854 102.109 139.854H194.836C197.397 139.854 199.473 137.778 199.473 135.218C199.473 132.657 197.397 130.581 194.836 130.581H102.109ZM18.6543 145.278V171.52C13.2279 169.63 9.38161 164.507 9.38161 158.399C9.38161 152.292 13.2279 147.168 18.6543 145.278Z" fill="#9DAF89"/>
</svg>
