<svg width="216" height="39" viewBox="0 0 216 39" fill="none" xmlns="http://www.w3.org/2000/svg">
<g clip-path="url(#clip0_142_5)">
<path d="M113.84 36.95C113.84 36.95 101.71 5.74001 57.88 24.46C28.28 37.1 8.41999 23.01 4.35999 11.01" stroke="#2E6F40" stroke-miterlimit="10"/>
<path d="M86.66 21.72C90.43 19.61 94.99 19.88 94.99 19.88C94.99 19.88 92.83 23.9 89.06 26.01C85.29 28.12 81.34 27.51 81.34 27.51C81.34 27.51 82.89 23.83 86.66 21.72Z" fill="#2E6F40"/>
<path d="M34.76 23.3C38.43 25.58 40.4 29.7 40.4 29.7C40.4 29.7 35.83 29.75 32.17 27.47C28.5 25.19 27.13 21.44 27.13 21.44C27.13 21.44 31.1 21.02 34.77 23.3H34.76Z" fill="#2E6F40"/>
<path d="M67.3 14.3C71.35 15.81 74.0999 19.46 74.0999 19.46C74.0999 19.46 69.6299 20.41 65.5899 18.91C61.5399 17.4 59.45 14 59.45 14C59.45 14 63.2599 12.8 67.3099 14.31L67.3 14.3Z" fill="#2E6F40"/>
<path d="M49.82 30.67C52.21 27.07 56.38 25.22 56.38 25.22C56.38 25.22 56.3 29.79 53.91 33.39C51.52 36.99 47.74 38.26 47.74 38.26C47.74 38.26 47.43 34.28 49.82 30.68V30.67Z" fill="#2E6F40"/>
<path d="M11.54 26.94C15.69 25.73 20.07 27.01 20.07 27.01C20.07 27.01 17.06 30.44 12.91 31.65C8.76005 32.86 5.05005 31.38 5.05005 31.38C5.05005 31.38 7.39005 28.14 11.53 26.94H11.54Z" fill="#2E6F40"/>
<path d="M6.74 12.01C9.56 15.28 10.22 19.8 10.22 19.8C10.22 19.8 5.84 18.49 3.02 15.22C0.2 11.95 0 7.97 0 7.97C0 7.97 3.92 8.75 6.74 12.02V12.01Z" fill="#2E6F40"/>
<path d="M101.28 36.95C101.28 36.95 113.41 5.74001 157.24 24.46C186.84 37.1 206.7 23.01 210.76 11.01" stroke="#2E6F40" stroke-miterlimit="10"/>
<path d="M128.46 21.72C124.69 19.61 120.13 19.88 120.13 19.88C120.13 19.88 122.29 23.9 126.06 26.01C129.83 28.12 133.78 27.51 133.78 27.51C133.78 27.51 132.23 23.83 128.46 21.72Z" fill="#2E6F40"/>
<path d="M180.37 23.3C176.7 25.58 174.73 29.7 174.73 29.7C174.73 29.7 179.3 29.75 182.96 27.47C186.63 25.19 188 21.44 188 21.44C188 21.44 184.03 21.02 180.36 23.3H180.37Z" fill="#2E6F40"/>
<path d="M147.82 14.3C143.77 15.81 141.02 19.46 141.02 19.46C141.02 19.46 145.49 20.41 149.53 18.91C153.58 17.4 155.67 14 155.67 14C155.67 14 151.86 12.8 147.81 14.31L147.82 14.3Z" fill="#2E6F40"/>
<path d="M165.31 30.67C162.92 27.07 158.75 25.22 158.75 25.22C158.75 25.22 158.83 29.79 161.22 33.39C163.61 36.99 167.39 38.26 167.39 38.26C167.39 38.26 167.7 34.28 165.31 30.68V30.67Z" fill="#2E6F40"/>
<path d="M203.59 26.94C199.44 25.73 195.06 27.01 195.06 27.01C195.06 27.01 198.07 30.44 202.22 31.65C206.37 32.86 210.08 31.38 210.08 31.38C210.08 31.38 207.74 28.14 203.59 26.94Z" fill="#2E6F40"/>
<path d="M208.38 12.01C205.56 15.28 204.9 19.8 204.9 19.8C204.9 19.8 209.28 18.49 212.1 15.22C214.92 11.95 215.12 7.95999 215.12 7.95999C215.12 7.95999 211.2 8.73999 208.38 12.01Z" fill="#2E6F40"/>
<path d="M116.19 0.220006C111.78 -1.16999 107.86 4.58001 107.56 5.02001C107.26 4.57001 103.34 -1.17999 98.93 0.220006C93.02 2.09001 100.66 13.57 107.54 18.93V18.95C107.54 18.95 107.55 18.95 107.56 18.94C107.56 18.94 107.57 18.94 107.58 18.95V18.93C114.46 13.57 122.09 2.09001 116.19 0.220006Z" fill="#2E6F40"/>
</g>
<defs>
<clipPath id="clip0_142_5">
<rect width="215.12" height="38.25" fill="white"/>
</clipPath>
</defs>
</svg>
