<svg width="219" height="269" viewBox="0 0 219 269" fill="none" xmlns="http://www.w3.org/2000/svg">
<path d="M72.5129 200.242C76.2769 200.242 79.3256 197.177 79.3256 193.429C79.3256 189.688 76.2614 186.616 72.5129 186.616C68.7722 186.616 65.7002 189.68 65.7002 193.429C65.7002 197.17 68.7644 200.242 72.5129 200.242ZM72.5129 190.505C74.1227 190.505 75.4371 191.819 75.4371 193.429C75.4371 195.039 74.1228 196.353 72.5129 196.353C70.903 196.353 69.5886 195.039 69.5886 193.429C69.5886 191.819 70.903 190.505 72.5129 190.505Z" fill="#9DAF89"/>
<path d="M105.697 63.0561C101.995 59.2531 97.0337 57.1613 91.7843 57.1613C86.5271 57.1613 81.5887 59.2533 77.8712 63.0561L72.5129 68.5311L67.1546 63.0561C63.4294 59.2531 58.4909 57.1613 53.2415 57.1613C47.9843 57.1613 43.0459 59.2533 39.3284 63.0561C35.6265 66.8357 33.5968 71.8753 33.5968 77.2103C33.5968 82.5453 35.6265 87.6005 39.3284 91.3878L69.216 121.952C70.0948 122.847 71.269 123.344 72.5213 123.344C73.7734 123.344 74.9478 122.847 75.8499 121.952L105.713 91.3878C113.358 83.5796 113.358 70.8635 105.713 63.0412L105.697 63.0561ZM73.0504 119.238C72.8482 119.44 72.6305 119.455 72.5138 119.455C72.3972 119.455 72.1716 119.416 71.9928 119.238L42.1291 88.6732C39.1428 85.609 37.4941 81.5495 37.4941 77.2254C37.4941 72.9014 39.1428 68.8419 42.1291 65.7777C45.1155 62.7292 49.0585 61.0571 53.2579 61.0571C57.4573 61.0571 61.4238 62.7291 64.3867 65.7777L70.4606 71.9915C71.0205 72.5515 71.736 72.8703 72.5293 72.8703C73.307 72.8703 74.0458 72.5515 74.5981 71.9915L80.6719 65.7777C83.6583 62.7292 87.6168 61.0571 91.8242 61.0571C96.0238 61.0571 99.9901 62.7291 102.953 65.7777C109.128 72.0927 109.128 82.3582 102.953 88.6732L73.0894 119.238H73.0504Z" fill="#9DAF89"/>
<path d="M194.828 111.732L194.805 111.709C194.766 111.67 194.743 111.631 194.727 111.569C192.736 109.158 189.789 107.765 186.663 107.765H123.157V41.5917C123.157 36.2178 118.794 31.8549 113.42 31.8549H31.6373C26.2634 31.8549 21.9005 36.2178 21.9005 41.5917V197.319C21.9005 202.692 26.2634 207.055 31.6373 207.055H113.404C118.778 207.055 123.141 202.692 123.141 197.319V170.061H186.647C189.057 170.061 191.383 169.221 193.257 167.712C195.707 165.698 197.099 162.735 197.099 159.609V118.22C197.099 115.871 196.282 113.585 194.828 111.749V111.726L194.828 111.732ZM186.647 111.67C187.845 111.67 188.996 112.027 189.991 112.626L147.366 141.253C145.577 142.63 143.501 142.63 141.611 141.191L99.087 112.618C100.082 112.019 101.233 111.661 102.431 111.661H186.649L186.647 111.67ZM129.588 137.808L97.2353 163.589C96.3565 162.453 95.8821 161.061 95.8821 159.607V118.218C95.8821 117.284 96.0998 116.382 96.4809 115.55L129.588 137.793L129.588 137.808ZM82.405 35.7583L79.7609 39.5223C79.7609 39.5223 79.6053 39.6389 79.3798 39.6389H65.6222C65.4044 39.6389 65.28 39.5612 65.2411 39.5223L62.597 35.7583H82.405ZM119.237 197.34C119.237 200.568 116.608 203.173 113.404 203.173H31.6374C28.41 203.173 25.8046 200.545 25.8046 197.34V183.723H119.238L119.237 197.34ZM119.237 179.819H25.8035V41.59C25.8035 38.3626 28.4321 35.7573 31.6362 35.7573H57.8764L62.076 41.7688C62.8537 42.8809 64.1836 43.542 65.638 43.542H79.3955C80.8498 43.542 82.1641 42.8887 82.9575 41.7532L87.1571 35.7417H113.397C116.625 35.7417 119.23 38.3703 119.23 41.5745L119.238 107.764H102.432C99.3054 107.764 96.3579 109.156 94.367 111.567C94.3281 111.606 94.3048 111.645 94.2892 111.707L94.2659 111.731V111.769C92.8116 113.605 91.9951 115.891 91.9951 118.24V159.629C91.9951 162.755 93.3871 165.718 95.8602 167.733C97.7111 169.249 100.06 170.081 102.471 170.081H119.277V179.818L119.237 179.819ZM186.647 166.201H102.43C101.792 166.201 101.177 166.1 100.579 165.921L132.971 140.101L139.363 144.379C140.973 145.592 142.785 146.214 144.582 146.214C146.37 146.214 148.105 145.615 149.66 144.464L156.131 140.101L188.507 165.905C187.908 166.084 187.294 166.185 186.656 166.185L186.647 166.201ZM193.219 159.63C193.219 161.084 192.744 162.476 191.865 163.612L159.513 137.831L192.62 115.589C193.001 116.429 193.219 117.323 193.219 118.256V159.645L193.219 159.63Z" fill="#9DAF89"/>
</svg>
