<svg width="274" height="274" viewBox="0 0 274 274" fill="none" xmlns="http://www.w3.org/2000/svg">
<path d="M4.40625 273.193C6.84291 273.193 8.8125 271.219 8.8125 268.787V213.665V204.896C8.8125 200.622 11.3681 196.789 15.3117 195.128L33.4655 187.549C35.109 186.866 36.1753 185.258 36.1753 183.482V167.575C36.1753 165.042 38.2066 162.993 40.7049 162.962C41.7757 163.742 42.886 164.469 44.0228 165.156V176.353C44.0228 178.785 45.9924 180.759 48.4291 180.759C50.8658 180.759 52.8353 178.785 52.8353 176.353V169.281C55.3337 170.14 57.929 170.774 60.5992 171.197V176.348C60.5992 178.78 62.5688 180.754 65.0054 180.754C67.4421 180.754 69.4117 178.78 69.4117 176.348V171.735C72.0818 171.642 74.7036 171.374 77.2416 170.845V183.478C77.2416 185.253 78.3079 186.862 79.9514 187.544L98.0875 195.114C99.4226 195.678 100.515 196.538 101.48 197.511C100.855 197.507 100.225 197.494 99.5901 197.551C94.7828 197.97 91.1609 201.904 91.1609 206.698V234.017L79.4227 267.315C78.6119 269.611 79.8192 272.127 82.1149 272.933C82.604 273.114 83.0975 273.193 83.5866 273.193C85.4019 273.193 87.1028 272.061 87.7417 270.25L98.3078 240.274L122.212 247.796L119.687 268.245C119.387 270.66 121.101 272.858 123.516 273.158C125.97 273.453 128.134 271.739 128.429 269.325L131.165 247.179L136.585 243.433L142.018 247.183L144.754 269.325C145.049 271.739 147.235 273.431 149.667 273.158C152.082 272.858 153.8 270.66 153.496 268.245L150.901 247.236L175.012 235.119L185.375 270.038C185.944 271.955 187.702 273.193 189.601 273.193C190.015 273.193 190.434 273.131 190.852 273.008C193.183 272.316 194.518 269.866 193.827 267.531L181.974 227.58C179.872 220.428 175.078 214.52 168.583 210.906V203.971C168.583 200.248 170.808 196.912 174.241 195.48L196.871 186.073V188.99V268.787C196.871 271.219 198.841 273.193 201.278 273.193C203.714 273.193 205.684 271.219 205.684 268.787V196.793L214.205 201.931C214.906 202.354 215.695 202.565 216.483 202.565C217.272 202.565 218.056 202.354 218.761 201.931L227.283 196.793V268.787C227.283 271.219 229.253 273.193 231.689 273.193C234.126 273.193 236.096 271.219 236.096 268.787V188.99V186.082L258.691 195.485C262.141 196.917 264.375 200.248 264.375 203.971V268.787C264.375 271.219 266.345 273.193 268.781 273.193C271.218 273.193 273.188 271.219 273.188 268.787V203.971C273.188 196.67 268.816 190.14 262.062 187.346L236.087 176.533V160.054C240.916 155.749 244.842 150.47 247.534 144.5C257.841 144.337 266.182 135.93 266.182 125.584C266.182 122.46 265.349 119.556 264.005 116.956L266.97 96.6039C269.046 82.2792 264.798 67.7782 255.311 56.8199C245.825 45.8615 232.073 39.5738 217.581 39.5738H169.508C162.705 39.5738 156.823 44.0021 154.88 50.5938C153.373 55.6919 154.514 60.8207 157.779 64.5572L156.479 66.6678C151.822 74.11 150.601 83.2001 153.122 91.5808L159.246 112.29C159.273 112.378 159.326 112.453 159.356 112.537C159.193 114.233 159.088 115.934 159.088 117.657V125.54C159.088 148.153 175.404 166.998 196.871 171.003V176.533L170.857 187.346C164.124 190.157 159.771 196.683 159.771 203.971V207.135L156.611 205.888L153.884 197.093C152.267 191.955 147.385 188.373 142.018 188.373H121.568C116.836 188.373 112.76 191.065 110.663 194.969C109.2 192.506 107.191 190.391 104.737 188.769V153.339C110.588 145.588 114.104 135.978 114.104 125.54V117.657C114.104 115.925 113.994 114.207 113.831 112.502C113.857 112.422 113.924 112.365 113.946 112.286L117.374 100.622C121.705 86.0994 119 70.8053 109.949 58.6617C100.908 46.5313 87.0455 39.5738 71.91 39.5738H50.9803C22.8684 39.5738 0 62.4422 0 90.5541V204.896V213.665V268.787C0 271.219 1.96959 273.193 4.40625 273.193ZM227.274 179.49C227.274 179.494 227.274 179.499 227.274 179.499V183.482V186.5L216.479 193.013L205.684 186.5V183.482V171.805C213.487 171.753 220.837 169.765 227.274 166.289V179.49ZM250.641 135.088C251.288 132.004 251.641 128.814 251.641 125.544V116.503C255.016 118.15 257.369 121.583 257.369 125.584C257.369 129.972 254.553 133.682 250.641 135.088ZM161.568 89.0648C159.771 83.0987 160.639 76.6392 163.965 71.3208L167.222 66.0333C168.279 64.3105 167.949 62.0016 166.539 60.5564C166.31 60.3184 166.054 60.1113 165.776 59.9307C162.295 57.6791 163.022 54.1276 163.326 53.0878C163.996 50.8141 165.975 48.3863 169.504 48.3863H217.576C229.508 48.3863 240.832 53.5636 248.649 62.5876C256.453 71.6072 259.951 83.5438 258.25 95.3393L256.254 109.03C254.161 107.884 251.852 107.139 249.381 106.857L229.372 85.0683C226.107 81.5125 221.189 80.0716 216.51 81.2966L197.484 86.3065L183.375 81.8958C178.008 80.2215 172.187 82.169 168.927 86.7735C166.829 89.7301 165.093 92.8674 163.653 96.1236L161.568 89.0648ZM167.896 125.54V117.657C167.896 108.364 170.738 99.4459 176.109 91.8628C176.907 90.7392 178.18 90.1091 179.502 90.1091C179.916 90.1091 180.335 90.1708 180.749 90.2986L196.069 95.0837C196.858 95.3305 197.7 95.3525 198.506 95.141L218.757 89.8139C220.26 89.4173 221.841 89.8844 222.89 91.0212L242.833 112.744V125.54C242.833 146.196 226.027 163.006 205.367 163.006C184.706 163.006 167.896 146.201 167.896 125.54ZM86.0541 168.064C89.6011 166.54 92.897 164.553 95.9197 162.231V184.667L86.0541 180.547V168.064ZM126.292 239.842L99.9822 231.563V206.703C99.9822 206.535 100.114 206.355 100.366 206.333C103.776 206.042 106.997 207.536 109.143 210.171V212.299C109.143 219.935 112.906 227.091 119.198 231.435L128.83 238.084L126.292 239.842ZM117.955 200.798C117.955 198.965 119.286 197.551 121.035 197.291L121.595 208.831C121.709 211.188 123.657 213.026 125.992 213.026C126.067 213.026 126.138 213.026 126.208 213.021C128.64 212.902 130.518 210.836 130.399 208.408L129.857 197.19H133.13L134.8 209.228C135.104 211.431 136.995 213.03 139.158 213.03C139.361 213.03 139.564 213.017 139.771 212.991C142.181 212.656 143.864 210.431 143.529 208.02L142.027 197.194C143.586 197.199 145.01 198.247 145.477 199.732L148.83 210.527C149.226 211.805 150.183 212.828 151.421 213.321L162.009 217.498C166.486 219.3 169.993 222.596 172.113 226.729L146.525 239.587L124.208 224.191C120.295 221.49 117.96 217.049 117.96 212.308L117.955 200.798ZM105.292 125.54C105.292 146.196 88.4863 163.006 67.8254 163.006C47.1645 163.006 30.3591 146.201 30.3591 125.54C30.3591 117.287 33.4346 109.395 39.0217 103.315L40.7402 101.442C48.2088 93.308 58.8278 88.6462 69.8699 88.6462H90.8437C93.3156 88.6462 95.6465 89.8491 97.0785 91.8716C102.454 99.4503 105.292 108.369 105.292 117.666V125.54ZM50.9803 48.3863H71.91C84.2299 48.3863 95.5187 54.0527 102.882 63.9271C109.799 73.2067 112.099 84.7467 109.442 95.9209C108.019 92.7352 106.31 89.664 104.256 86.7691C101.176 82.4246 96.1576 79.8293 90.8348 79.8293H69.8611C56.3603 79.8293 43.3707 85.5354 34.2366 95.4847H34.2322L32.5181 97.3574C25.4373 105.068 21.5378 115.075 21.5378 125.54C21.5378 137.384 26.0498 148.17 33.395 156.361C29.7642 158.767 27.3584 162.887 27.3584 167.571V180.543L11.9013 186.994C10.8041 187.461 9.78628 188.042 8.8125 188.681V90.5541C8.8125 67.3023 27.7285 48.3863 50.9803 48.3863ZM200.326 135.507C196.254 135.507 192.624 133.788 190.852 131.017C189.544 128.968 190.143 126.24 192.192 124.932C194.245 123.614 196.964 124.218 198.281 126.267C198.317 126.267 199.035 126.694 200.33 126.694C201.634 126.694 202.353 126.267 202.472 126.152C203.78 124.099 206.464 123.557 208.513 124.874C210.566 126.183 211.117 128.968 209.808 131.021C208.032 133.788 204.402 135.507 200.326 135.507ZM207.534 104.76C209.605 101.27 213.981 99.1022 218.951 99.1022C223.921 99.1022 228.297 101.27 230.368 104.76C231.61 106.853 230.923 109.554 228.83 110.801C228.125 111.219 227.349 111.418 226.583 111.418C225.076 111.418 223.613 110.647 222.793 109.263C222.538 108.84 221.229 107.919 218.951 107.919C216.673 107.919 215.364 108.84 215.109 109.263C213.871 111.356 211.161 112.039 209.072 110.801C206.979 109.558 206.287 106.857 207.534 104.76ZM171.372 105.051C173.17 101.442 177.224 99.1066 181.705 99.1066C186.19 99.1066 190.244 101.442 192.042 105.051C193.126 107.232 192.236 109.876 190.059 110.959C189.429 111.272 188.759 111.418 188.103 111.418C186.481 111.418 184.921 110.523 184.155 108.972C183.934 108.532 183.036 107.915 181.709 107.915C180.387 107.915 179.489 108.532 179.268 108.972C178.189 111.149 175.536 112.039 173.36 110.955C171.183 109.871 170.284 107.227 171.372 105.051ZM207.534 120.658C206.292 118.565 206.979 115.864 209.072 114.617C211.161 113.365 213.866 114.066 215.109 116.154C215.364 116.577 216.673 117.498 218.951 117.498C221.229 117.498 222.538 116.577 222.793 116.154C224.031 114.061 226.741 113.378 228.83 114.617C230.923 115.859 231.61 118.565 230.368 120.658C228.297 124.147 223.921 126.315 218.951 126.315C213.976 126.315 209.601 124.147 207.534 120.658ZM181.701 126.315C177.219 126.315 173.166 123.98 171.368 120.371C170.284 118.19 171.174 115.546 173.351 114.462C175.527 113.383 178.18 114.269 179.259 116.445C179.48 116.886 180.379 117.503 181.701 117.503C183.027 117.503 183.926 116.886 184.146 116.445C185.226 114.264 187.878 113.383 190.055 114.462C192.231 115.546 193.122 118.19 192.038 120.371C190.24 123.98 186.186 126.315 181.701 126.315ZM141.167 156.569V151.612C141.167 149.179 143.137 147.205 145.574 147.205C148.01 147.205 149.98 149.179 149.98 151.612V156.569H151.989C154.426 156.569 156.395 158.543 156.395 160.975C156.395 163.407 154.426 165.381 151.989 165.381H149.98V170.338C149.98 172.77 148.01 174.744 145.574 174.744C143.137 174.744 141.167 172.77 141.167 170.338V165.381H139.158C136.722 165.381 134.752 163.407 134.752 160.975C134.752 158.543 136.722 156.569 139.158 156.569H141.167ZM130.178 112.572C132.615 112.572 134.585 114.546 134.585 116.978V121.935H136.594C139.03 121.935 141 123.909 141 126.342C141 128.774 139.03 130.748 136.594 130.748H134.585V135.705C134.585 138.137 132.615 140.111 130.178 140.111C127.742 140.111 125.772 138.137 125.772 135.705V130.748H123.763C121.326 130.748 119.356 128.774 119.356 126.342C119.356 123.909 121.326 121.935 123.763 121.935H125.772V116.978C125.772 114.546 127.742 112.572 130.178 112.572ZM87.3363 27.2231L96.0518 2.92261C96.8758 0.626956 99.3874 -0.558325 101.687 0.261237C103.979 1.08521 105.168 3.60558 104.349 5.89683L95.6333 30.1973C94.9899 31.9995 93.2935 33.1186 91.487 33.1186C90.9935 33.1186 90.4912 33.0349 89.9977 32.8587C87.7064 32.0391 86.5167 29.5143 87.3363 27.2231ZM117.369 17.5778L119.995 3.60117C120.445 1.20858 122.767 -0.36445 125.137 0.0849872C127.53 0.534425 129.103 2.83889 128.654 5.22708L126.028 19.2037C125.631 21.3187 123.78 22.7948 121.705 22.7948C121.432 22.7948 121.163 22.7728 120.885 22.7199C118.493 22.2705 116.915 19.9704 117.369 17.5778ZM168.839 5.89683C168.015 3.60558 169.209 1.08521 171.5 0.261237C173.796 -0.562732 176.316 0.626956 177.136 2.92261L185.851 27.2231C186.675 29.5143 185.481 32.0347 183.19 32.8587C182.696 33.0349 182.194 33.1186 181.701 33.1186C179.894 33.1186 178.198 31.9995 177.554 30.1973L168.839 5.89683ZM147.16 19.2037L144.534 5.22708C144.08 2.83449 145.657 0.534425 148.05 0.0849872C150.451 -0.36445 152.743 1.20858 153.192 3.60117L155.818 17.5778C156.272 19.9704 154.695 22.2705 152.302 22.7199C152.029 22.7728 151.756 22.7948 151.482 22.7948C149.407 22.7948 147.556 21.3187 147.16 19.2037ZM82.3396 131.017C80.5683 133.784 76.9331 135.507 72.8662 135.507C68.7904 135.507 65.1596 133.788 63.3883 131.017C62.0797 128.968 62.6789 126.24 64.7278 124.932C66.7459 123.641 69.4161 124.2 70.7512 126.174C70.9362 126.315 71.6412 126.694 72.8662 126.694C74.166 126.694 74.8842 126.267 75.0032 126.152C76.3118 124.099 78.9997 123.557 81.0442 124.874C83.0931 126.183 83.6438 128.968 82.3396 131.017ZM42.8243 104.76C44.8953 101.27 49.2707 99.1022 54.2409 99.1022C59.2112 99.1022 63.5866 101.27 65.6575 104.76C66.9001 106.853 66.2127 109.554 64.1198 110.801C63.4148 111.219 62.6392 111.418 61.8726 111.418C60.3656 111.418 58.9028 110.647 58.0832 109.263C57.8276 108.84 56.519 107.919 54.2409 107.919C51.9629 107.919 50.6542 108.84 50.3987 109.263C49.1561 111.356 46.4551 112.039 44.3621 110.801C42.2692 109.558 41.5818 106.857 42.8243 104.76ZM91.487 99.1066C95.9681 99.1066 100.022 101.442 101.82 105.051C102.904 107.232 102.014 109.876 99.8368 110.959C99.2067 111.272 98.537 111.418 97.8804 111.418C96.2589 111.418 94.6991 110.523 93.9324 108.972C93.7121 108.532 92.8132 107.915 91.4914 107.915C90.1651 107.915 89.2662 108.532 89.0459 108.972C87.962 111.149 85.3094 112.039 83.1371 110.955C80.9604 109.871 80.0704 107.227 81.1543 105.046C82.9477 101.442 87.0014 99.1066 91.487 99.1066ZM54.2409 126.315C49.2707 126.315 44.8953 124.147 42.8243 120.658C41.5818 118.565 42.2692 115.864 44.3621 114.617C46.4551 113.365 49.1605 114.066 50.3987 116.154C50.6542 116.577 51.9629 117.498 54.2409 117.498C56.519 117.498 57.8276 116.577 58.0832 116.154C59.3213 114.061 62.0312 113.378 64.1198 114.617C66.2127 115.859 66.9001 118.565 65.6575 120.658C63.5866 124.147 59.2068 126.315 54.2409 126.315ZM101.815 120.367C100.017 123.976 95.9637 126.311 91.4826 126.311C86.997 126.311 82.9433 123.976 81.1455 120.367C80.0616 118.186 80.9516 115.542 83.1283 114.458C85.3006 113.378 87.9532 114.264 89.0371 116.441C89.2574 116.881 90.1563 117.498 91.4826 117.498C92.8044 117.498 93.7033 116.881 93.9236 116.441C95.0076 114.26 97.6557 113.378 99.8324 114.458C102.009 115.546 102.904 118.19 101.815 120.367Z" fill="#9DAF89"/>
</svg>
